<mxfile host="65bd71144e" modified="2020-11-22T05:45:54.311Z" agent="5.0 (Windows NT 10.0; Win64; x64) AppleWebKit/537.36 (KHTML, like Gecko) Code/1.51.1 Chrome/83.0.4103.122 Electron/9.3.3 Safari/537.36" etag="ccF-_pOfNxQ6HrrKjDCp" version="13.6.5">
    <diagram id="OujcNtgUmdcS_EdKk6ag" name="Page-1">
        <mxGraphModel dx="990" dy="-515" grid="1" gridSize="10" guides="1" tooltips="1" connect="1" arrows="1" fold="1" page="1" pageScale="1" pageWidth="850" pageHeight="1100" background="#FFFFFF" math="0" shadow="0">
            <root>
                <mxCell id="0"/>
                <mxCell id="1" parent="0"/>
                <mxCell id="126" style="edgeStyle=orthogonalEdgeStyle;rounded=0;orthogonalLoop=1;jettySize=auto;html=1;entryX=0.373;entryY=1.01;entryDx=0;entryDy=0;entryPerimeter=0;" parent="1" source="22" target="102" edge="1">
                    <mxGeometry relative="1" as="geometry">
                        <Array as="points">
                            <mxPoint x="140" y="2260"/>
                        </Array>
                    </mxGeometry>
                </mxCell>
                <mxCell id="24" value="&lt;font face=&quot;Verdana&quot; style=&quot;font-size: 12px&quot;&gt;7.0&lt;/font&gt;" style="swimlane;childLayout=stackLayout;horizontal=1;startSize=30;horizontalStack=0;rounded=1;fontSize=14;fontStyle=0;strokeWidth=1;resizeParent=0;resizeLast=1;shadow=0;dashed=0;align=center;html=1;" parent="1" vertex="1">
                    <mxGeometry x="560" y="2400" width="160" height="120" as="geometry">
                        <mxRectangle x="560" y="2400" width="50" height="30" as="alternateBounds"/>
                    </mxGeometry>
                </mxCell>
                <mxCell id="25" value="&lt;font face=&quot;Verdana&quot;&gt;Using App Statistics&lt;/font&gt;" style="text;html=1;align=center;verticalAlign=middle;resizable=0;points=[];autosize=1;" parent="24" vertex="1">
                    <mxGeometry y="30" width="160" height="90" as="geometry"/>
                </mxCell>
                <mxCell id="22" value="&lt;font face=&quot;Verdana&quot; style=&quot;font-size: 12px&quot;&gt;6.0&lt;/font&gt;" style="swimlane;childLayout=stackLayout;horizontal=1;startSize=30;horizontalStack=0;rounded=1;fontSize=14;fontStyle=0;strokeWidth=1;resizeParent=0;resizeLast=1;shadow=0;dashed=0;align=center;html=1;" parent="1" vertex="1">
                    <mxGeometry x="560" y="2200" width="160" height="120" as="geometry">
                        <mxRectangle x="182" y="100" width="50" height="30" as="alternateBounds"/>
                    </mxGeometry>
                </mxCell>
                <mxCell id="23" value="&lt;font face=&quot;Verdana&quot;&gt;Pomodoro Statistics&lt;/font&gt;" style="text;html=1;align=center;verticalAlign=middle;resizable=0;points=[];autosize=1;" parent="22" vertex="1">
                    <mxGeometry y="30" width="160" height="90" as="geometry"/>
                </mxCell>
                <mxCell id="20" value="&lt;font face=&quot;Verdana&quot; style=&quot;font-size: 12px&quot;&gt;5.0&lt;/font&gt;" style="swimlane;childLayout=stackLayout;horizontal=1;startSize=30;horizontalStack=0;rounded=1;fontSize=14;fontStyle=0;strokeWidth=1;resizeParent=0;resizeLast=1;shadow=0;dashed=0;align=center;html=1;" parent="1" vertex="1">
                    <mxGeometry x="560" y="2000" width="160" height="120" as="geometry">
                        <mxRectangle x="182" y="100" width="50" height="30" as="alternateBounds"/>
                    </mxGeometry>
                </mxCell>
                <mxCell id="21" value="&lt;font face=&quot;Verdana&quot;&gt;Achievement Statistics&lt;/font&gt;" style="text;html=1;align=center;verticalAlign=middle;resizable=0;points=[];autosize=1;" parent="20" vertex="1">
                    <mxGeometry y="30" width="160" height="90" as="geometry"/>
                </mxCell>
                <mxCell id="18" value="&lt;font face=&quot;Verdana&quot; style=&quot;font-size: 12px&quot;&gt;4.0&lt;/font&gt;" style="swimlane;childLayout=stackLayout;horizontal=1;startSize=30;horizontalStack=0;rounded=1;fontSize=14;fontStyle=0;strokeWidth=1;resizeParent=0;resizeLast=1;shadow=0;dashed=0;align=center;html=1;" parent="1" vertex="1">
                    <mxGeometry x="560" y="1800" width="160" height="120" as="geometry">
                        <mxRectangle x="182" y="100" width="50" height="30" as="alternateBounds"/>
                    </mxGeometry>
                </mxCell>
                <mxCell id="19" value="&lt;font face=&quot;Verdana&quot; style=&quot;font-size: 12px&quot;&gt;Tag Task Statistics&lt;/font&gt;" style="text;html=1;align=center;verticalAlign=middle;resizable=0;points=[];autosize=1;" parent="18" vertex="1">
                    <mxGeometry y="30" width="160" height="90" as="geometry"/>
                </mxCell>
                <mxCell id="15" value="&lt;font style=&quot;font-size: 12px&quot; face=&quot;Verdana&quot;&gt;3.0&lt;/font&gt;" style="swimlane;childLayout=stackLayout;horizontal=1;startSize=30;horizontalStack=0;rounded=1;fontSize=14;fontStyle=0;strokeWidth=1;resizeParent=0;resizeLast=1;shadow=0;dashed=0;align=center;html=1;" parent="1" vertex="1">
                    <mxGeometry x="560" y="1600" width="160" height="120" as="geometry">
                        <mxRectangle x="182" y="100" width="50" height="30" as="alternateBounds"/>
                    </mxGeometry>
                </mxCell>
                <mxCell id="16" value="&lt;font face=&quot;Verdana&quot;&gt;All Task Statistics&lt;/font&gt;" style="text;html=1;align=center;verticalAlign=middle;resizable=0;points=[];autosize=1;" parent="15" vertex="1">
                    <mxGeometry y="30" width="160" height="90" as="geometry"/>
                </mxCell>
                <mxCell id="112" style="edgeStyle=orthogonalEdgeStyle;rounded=0;orthogonalLoop=1;jettySize=auto;html=1;entryX=0.863;entryY=-0.003;entryDx=0;entryDy=0;entryPerimeter=0;" parent="1" source="12" target="102" edge="1">
                    <mxGeometry relative="1" as="geometry">
                        <Array as="points">
                            <mxPoint x="218" y="1460"/>
                        </Array>
                    </mxGeometry>
                </mxCell>
                <mxCell id="12" value="&lt;font face=&quot;Verdana&quot; style=&quot;font-size: 12px&quot;&gt;2.0&lt;/font&gt;" style="swimlane;childLayout=stackLayout;horizontal=1;startSize=30;horizontalStack=0;rounded=1;fontSize=14;fontStyle=0;strokeWidth=1;resizeParent=0;resizeLast=1;shadow=0;dashed=0;align=center;html=1;" parent="1" vertex="1">
                    <mxGeometry x="560" y="1400" width="160" height="120" as="geometry">
                        <mxRectangle x="182" y="100" width="50" height="30" as="alternateBounds"/>
                    </mxGeometry>
                </mxCell>
                <mxCell id="13" value="&lt;font face=&quot;Verdana&quot;&gt;Deadline Task Statistics&lt;/font&gt;" style="text;html=1;align=center;verticalAlign=middle;resizable=0;points=[];autosize=1;" parent="12" vertex="1">
                    <mxGeometry y="30" width="160" height="90" as="geometry"/>
                </mxCell>
                <mxCell id="6" value="&lt;font face=&quot;Verdana&quot; style=&quot;font-size: 12px&quot;&gt;1.0&lt;/font&gt;" style="swimlane;childLayout=stackLayout;horizontal=1;startSize=30;horizontalStack=0;rounded=1;fontSize=14;fontStyle=0;strokeWidth=1;resizeParent=0;resizeLast=1;shadow=0;dashed=0;align=center;html=1;" parent="1" vertex="1">
                    <mxGeometry x="560" y="1200" width="165" height="120" as="geometry">
                        <mxRectangle x="182" y="100" width="50" height="30" as="alternateBounds"/>
                    </mxGeometry>
                </mxCell>
                <mxCell id="11" value="&lt;font face=&quot;Verdana&quot; style=&quot;font-size: 12px&quot;&gt;Completed Task Statistics&lt;/font&gt;" style="text;html=1;align=center;verticalAlign=middle;resizable=0;points=[];autosize=1;" parent="6" vertex="1">
                    <mxGeometry y="30" width="165" height="90" as="geometry"/>
                </mxCell>
                <mxCell id="8" value="" style="group" parent="1" vertex="1" connectable="0">
                    <mxGeometry x="1000" y="1659" width="170" height="61" as="geometry"/>
                </mxCell>
                <mxCell id="9" value="&lt;font face=&quot;Verdana&quot;&gt;&amp;nbsp; &amp;nbsp; &amp;nbsp; &amp;nbsp; &amp;nbsp; &amp;nbsp; &amp;nbsp; &amp;nbsp; &amp;nbsp; &amp;nbsp; Database&lt;/font&gt;" style="strokeWidth=1;html=1;shape=mxgraph.flowchart.annotation_1;align=left;pointerEvents=1;" parent="8" vertex="1">
                    <mxGeometry y="1" width="170" height="60" as="geometry"/>
                </mxCell>
                <mxCell id="10" value="" style="endArrow=none;html=1;entryX=0.296;entryY=1.006;entryDx=0;entryDy=0;entryPerimeter=0;" parent="8" target="9" edge="1">
                    <mxGeometry x="-0.0029" y="-27" width="50" height="50" relative="1" as="geometry">
                        <mxPoint x="49.9375" as="sourcePoint"/>
                        <mxPoint x="127.5" y="-129" as="targetPoint"/>
                        <mxPoint as="offset"/>
                    </mxGeometry>
                </mxCell>
                <mxCell id="28" value="&lt;font face=&quot;Verdana&quot;&gt;Yêu cầu xem danh sách thống kê các Task đã hoàn thành&lt;/font&gt;" style="text;html=1;align=center;verticalAlign=middle;resizable=0;points=[];autosize=1;" parent="1" vertex="1">
                    <mxGeometry x="175" y="1180" width="360" height="20" as="geometry"/>
                </mxCell>
                <mxCell id="32" value="&lt;font face=&quot;Verdana&quot;&gt;Danh sách thống kê các Task đã hoàn thành&lt;/font&gt;" style="text;html=1;align=center;verticalAlign=middle;resizable=0;points=[];autosize=1;" parent="1" vertex="1">
                    <mxGeometry x="760" y="1250" width="280" height="20" as="geometry"/>
                </mxCell>
                <mxCell id="37" value="&lt;font face=&quot;Verdana&quot;&gt;Yêu cầu xem danh sách thống kê các Task có ngày hết hạn&lt;/font&gt;" style="text;html=1;align=center;verticalAlign=middle;resizable=0;points=[];autosize=1;" parent="1" vertex="1">
                    <mxGeometry x="200" y="1380" width="370" height="20" as="geometry"/>
                </mxCell>
                <mxCell id="42" value="&lt;font face=&quot;Verdana&quot;&gt;Danh sách thống kê các Task có ngày hết hạn&lt;/font&gt;" style="text;html=1;align=center;verticalAlign=middle;resizable=0;points=[];autosize=1;" parent="1" vertex="1">
                    <mxGeometry x="740" y="1450" width="290" height="20" as="geometry"/>
                </mxCell>
                <mxCell id="45" value="&lt;font face=&quot;Verdana&quot;&gt;Yêu cầu xem danh sách thống kê tất cả Task&lt;/font&gt;" style="text;html=1;align=center;verticalAlign=middle;resizable=0;points=[];autosize=1;" parent="1" vertex="1">
                    <mxGeometry x="245" y="1580" width="290" height="20" as="geometry"/>
                </mxCell>
                <mxCell id="51" value="&lt;font face=&quot;Verdana&quot;&gt;Danh sách thống kê tất cả Task&lt;/font&gt;" style="text;html=1;align=center;verticalAlign=middle;resizable=0;points=[];autosize=1;" parent="1" vertex="1">
                    <mxGeometry x="760" y="1650" width="210" height="20" as="geometry"/>
                </mxCell>
                <mxCell id="55" value="&lt;font face=&quot;Verdana&quot;&gt;Yêu cầu xem danh sách thống kê Tag đã sử dụng&lt;/font&gt;" style="text;html=1;align=center;verticalAlign=middle;resizable=0;points=[];autosize=1;" parent="1" vertex="1">
                    <mxGeometry x="245" y="1780" width="310" height="20" as="geometry"/>
                </mxCell>
                <mxCell id="60" value="&lt;font face=&quot;Verdana&quot;&gt;Danh sách thống kê Tag đã sử dụng&lt;/font&gt;" style="text;html=1;align=center;verticalAlign=middle;resizable=0;points=[];autosize=1;" parent="1" vertex="1">
                    <mxGeometry x="750" y="1850" width="230" height="20" as="geometry"/>
                </mxCell>
                <mxCell id="63" value="&lt;font face=&quot;Verdana&quot;&gt;Yêu cầu xem danh sách thống kê các Achievement đã đạt được&lt;/font&gt;" style="text;html=1;align=center;verticalAlign=middle;resizable=0;points=[];autosize=1;" parent="1" vertex="1">
                    <mxGeometry x="192.5" y="1980" width="400" height="20" as="geometry"/>
                </mxCell>
                <mxCell id="69" value="&lt;font face=&quot;Verdana&quot;&gt;Danh sách thống kê các Achievement đã đạt được&lt;/font&gt;" style="text;html=1;align=center;verticalAlign=middle;resizable=0;points=[];autosize=1;" parent="1" vertex="1">
                    <mxGeometry x="725" y="2050" width="320" height="20" as="geometry"/>
                </mxCell>
                <mxCell id="72" value="&lt;font face=&quot;Verdana&quot;&gt;Yêu cầu xem danh sách thống kê về Pomodoro&lt;/font&gt;" style="text;html=1;align=center;verticalAlign=middle;resizable=0;points=[];autosize=1;" parent="1" vertex="1">
                    <mxGeometry x="205" y="2180" width="300" height="20" as="geometry"/>
                </mxCell>
                <mxCell id="82" value="&lt;font face=&quot;Verdana&quot;&gt;Danh sách thống kê về Pomodoro&lt;/font&gt;" style="text;html=1;align=center;verticalAlign=middle;resizable=0;points=[];autosize=1;" parent="1" vertex="1">
                    <mxGeometry x="800" y="2240" width="220" height="20" as="geometry"/>
                </mxCell>
                <mxCell id="85" value="&lt;font face=&quot;Verdana&quot;&gt;Yêu cầu xem danh sách thống kê về thời lượng sử dụng&lt;/font&gt;" style="text;html=1;align=center;verticalAlign=middle;resizable=0;points=[];autosize=1;" parent="1" vertex="1">
                    <mxGeometry x="170" y="2380" width="350" height="20" as="geometry"/>
                </mxCell>
                <mxCell id="100" value="&lt;font face=&quot;Verdana&quot;&gt;Danh sách thống kê về thời lương sử dụng của người dùng&lt;/font&gt;" style="text;html=1;align=center;verticalAlign=middle;resizable=0;points=[];autosize=1;" parent="1" vertex="1">
                    <mxGeometry x="740" y="2440" width="370" height="20" as="geometry"/>
                </mxCell>
                <mxCell id="101" value="&lt;font face=&quot;Verdana&quot; style=&quot;font-size: 14px&quot;&gt;STATISTICS&lt;/font&gt;" style="text;html=1;align=center;verticalAlign=middle;resizable=0;points=[];autosize=1;" parent="1" vertex="1">
                    <mxGeometry x="592.5" y="1120" width="100" height="20" as="geometry"/>
                </mxCell>
                <mxCell id="106" style="edgeStyle=orthogonalEdgeStyle;rounded=0;orthogonalLoop=1;jettySize=auto;html=1;entryX=0.061;entryY=0;entryDx=0;entryDy=0;entryPerimeter=0;" parent="1" source="102" target="6" edge="1">
                    <mxGeometry relative="1" as="geometry">
                        <Array as="points">
                            <mxPoint x="160" y="1200"/>
                        </Array>
                    </mxGeometry>
                </mxCell>
                <mxCell id="110" style="edgeStyle=orthogonalEdgeStyle;rounded=0;orthogonalLoop=1;jettySize=auto;html=1;entryX=0.048;entryY=-0.003;entryDx=0;entryDy=0;entryPerimeter=0;" parent="1" source="102" target="12" edge="1">
                    <mxGeometry relative="1" as="geometry">
                        <Array as="points">
                            <mxPoint x="200" y="1400"/>
                        </Array>
                    </mxGeometry>
                </mxCell>
                <mxCell id="113" style="edgeStyle=orthogonalEdgeStyle;rounded=0;orthogonalLoop=1;jettySize=auto;html=1;entryX=0.048;entryY=-0.003;entryDx=0;entryDy=0;entryPerimeter=0;" parent="1" source="102" target="15" edge="1">
                    <mxGeometry relative="1" as="geometry">
                        <Array as="points">
                            <mxPoint x="320" y="1600"/>
                            <mxPoint x="320" y="1600"/>
                        </Array>
                    </mxGeometry>
                </mxCell>
                <mxCell id="116" style="edgeStyle=orthogonalEdgeStyle;rounded=0;orthogonalLoop=1;jettySize=auto;html=1;entryX=0.063;entryY=0;entryDx=0;entryDy=0;entryPerimeter=0;" parent="1" source="102" target="18" edge="1">
                    <mxGeometry relative="1" as="geometry">
                        <Array as="points">
                            <mxPoint x="240" y="1800"/>
                        </Array>
                    </mxGeometry>
                </mxCell>
                <mxCell id="119" style="edgeStyle=orthogonalEdgeStyle;rounded=0;orthogonalLoop=1;jettySize=auto;html=1;" parent="1" source="102" edge="1">
                    <mxGeometry relative="1" as="geometry">
                        <mxPoint x="570" y="2000" as="targetPoint"/>
                        <Array as="points">
                            <mxPoint x="200" y="2000"/>
                        </Array>
                    </mxGeometry>
                </mxCell>
                <mxCell id="124" style="edgeStyle=orthogonalEdgeStyle;rounded=0;orthogonalLoop=1;jettySize=auto;html=1;entryX=0.063;entryY=0;entryDx=0;entryDy=0;entryPerimeter=0;" parent="1" source="102" target="22" edge="1">
                    <mxGeometry relative="1" as="geometry">
                        <Array as="points">
                            <mxPoint x="160" y="2200"/>
                        </Array>
                    </mxGeometry>
                </mxCell>
                <mxCell id="129" style="edgeStyle=orthogonalEdgeStyle;rounded=0;orthogonalLoop=1;jettySize=auto;html=1;" parent="1" source="102" edge="1">
                    <mxGeometry relative="1" as="geometry">
                        <mxPoint x="570" y="2400" as="targetPoint"/>
                        <Array as="points">
                            <mxPoint x="120" y="2400"/>
                        </Array>
                    </mxGeometry>
                </mxCell>
                <mxCell id="102" value="User" style="rounded=0;whiteSpace=wrap;html=1;" parent="1" vertex="1">
                    <mxGeometry x="80" y="1600" width="160" height="120" as="geometry"/>
                </mxCell>
                <mxCell id="108" style="edgeStyle=orthogonalEdgeStyle;rounded=0;orthogonalLoop=1;jettySize=auto;html=1;entryX=0.625;entryY=0;entryDx=0;entryDy=0;entryPerimeter=0;" parent="1" target="102" edge="1">
                    <mxGeometry relative="1" as="geometry">
                        <mxPoint x="560" y="1260" as="sourcePoint"/>
                        <Array as="points">
                            <mxPoint x="560" y="1260"/>
                            <mxPoint x="180" y="1260"/>
                        </Array>
                    </mxGeometry>
                </mxCell>
                <mxCell id="109" value="&lt;font face=&quot;Verdana&quot;&gt;Hiển thị danh sách thống kê các Task đã hoàn thành&lt;/font&gt;" style="text;html=1;align=center;verticalAlign=middle;resizable=0;points=[];autosize=1;" parent="1" vertex="1">
                    <mxGeometry x="207.5" y="1260" width="330" height="20" as="geometry"/>
                </mxCell>
                <mxCell id="111" value="&lt;span style=&quot;color: rgb(0 , 0 , 0) ; font-family: &amp;#34;verdana&amp;#34; ; font-size: 12px ; font-style: normal ; font-weight: 400 ; letter-spacing: normal ; text-align: center ; text-indent: 0px ; text-transform: none ; word-spacing: 0px ; background-color: rgb(248 , 249 , 250) ; display: inline ; float: none&quot;&gt;Hiển thị danh sách thống kê các Task có ngày hết hạn&lt;/span&gt;" style="text;whiteSpace=wrap;html=1;" parent="1" vertex="1">
                    <mxGeometry x="225" y="1460" width="330" height="30" as="geometry"/>
                </mxCell>
                <mxCell id="114" style="edgeStyle=orthogonalEdgeStyle;rounded=0;orthogonalLoop=1;jettySize=auto;html=1;" parent="1" target="102" edge="1">
                    <mxGeometry relative="1" as="geometry">
                        <mxPoint x="560" y="1620" as="sourcePoint"/>
                        <Array as="points">
                            <mxPoint x="560" y="1660"/>
                        </Array>
                    </mxGeometry>
                </mxCell>
                <mxCell id="115" value="&lt;span style=&quot;color: rgb(0 , 0 , 0) ; font-family: &amp;#34;verdana&amp;#34; ; font-size: 12px ; font-style: normal ; font-weight: 400 ; letter-spacing: normal ; text-align: center ; text-indent: 0px ; text-transform: none ; word-spacing: 0px ; background-color: rgb(248 , 249 , 250) ; display: inline ; float: none&quot;&gt;Hiển thị danh sách thống kê tất cả các Task&lt;/span&gt;" style="text;whiteSpace=wrap;html=1;" parent="1" vertex="1">
                    <mxGeometry x="257.5" y="1659" width="270" height="30" as="geometry"/>
                </mxCell>
                <mxCell id="117" style="edgeStyle=orthogonalEdgeStyle;rounded=0;orthogonalLoop=1;jettySize=auto;html=1;entryX=0.877;entryY=1.01;entryDx=0;entryDy=0;entryPerimeter=0;" parent="1" target="102" edge="1">
                    <mxGeometry relative="1" as="geometry">
                        <mxPoint x="560" y="1820" as="sourcePoint"/>
                        <Array as="points">
                            <mxPoint x="560" y="1860"/>
                            <mxPoint x="220" y="1860"/>
                        </Array>
                    </mxGeometry>
                </mxCell>
                <mxCell id="118" value="&lt;span style=&quot;color: rgb(0 , 0 , 0) ; font-family: &amp;#34;verdana&amp;#34; ; font-size: 12px ; font-style: normal ; font-weight: 400 ; letter-spacing: normal ; text-align: center ; text-indent: 0px ; text-transform: none ; word-spacing: 0px ; background-color: rgb(248 , 249 , 250) ; display: inline ; float: none&quot;&gt;Hiển thị danh sách thống kê các Tag đã sử dụng&lt;/span&gt;" style="text;whiteSpace=wrap;html=1;" parent="1" vertex="1">
                    <mxGeometry x="252.5" y="1860" width="295" height="30" as="geometry"/>
                </mxCell>
                <mxCell id="120" style="edgeStyle=orthogonalEdgeStyle;rounded=0;orthogonalLoop=1;jettySize=auto;html=1;entryX=0.623;entryY=1.01;entryDx=0;entryDy=0;entryPerimeter=0;" parent="1" target="102" edge="1">
                    <mxGeometry relative="1" as="geometry">
                        <mxPoint x="560" y="2020" as="sourcePoint"/>
                        <Array as="points">
                            <mxPoint x="560" y="2060"/>
                            <mxPoint x="180" y="2060"/>
                        </Array>
                    </mxGeometry>
                </mxCell>
                <mxCell id="122" value="&lt;span style=&quot;color: rgb(0 , 0 , 0) ; font-family: &amp;#34;verdana&amp;#34; ; font-size: 12px ; font-style: normal ; font-weight: 400 ; letter-spacing: normal ; text-align: center ; text-indent: 0px ; text-transform: none ; word-spacing: 0px ; background-color: rgb(248 , 249 , 250) ; display: inline ; float: none&quot;&gt;Hiển thị danh sách thống kê các Achievement đã hoàn thành&lt;/span&gt;" style="text;whiteSpace=wrap;html=1;" parent="1" vertex="1">
                    <mxGeometry x="185" y="2060" width="375" height="30" as="geometry"/>
                </mxCell>
                <mxCell id="127" value="&lt;span style=&quot;color: rgb(0 , 0 , 0) ; font-family: &amp;#34;verdana&amp;#34; ; font-size: 12px ; font-style: normal ; font-weight: 400 ; letter-spacing: normal ; text-align: center ; text-indent: 0px ; text-transform: none ; word-spacing: 0px ; background-color: rgb(248 , 249 , 250) ; display: inline ; float: none&quot;&gt;Hiển thị danh sách thống kê về Pomodoro&lt;/span&gt;" style="text;whiteSpace=wrap;html=1;" parent="1" vertex="1">
                    <mxGeometry x="225" y="2260" width="260" height="30" as="geometry"/>
                </mxCell>
                <mxCell id="130" style="edgeStyle=orthogonalEdgeStyle;rounded=0;orthogonalLoop=1;jettySize=auto;html=1;" parent="1" edge="1">
                    <mxGeometry relative="1" as="geometry">
                        <mxPoint x="560" y="2418" as="sourcePoint"/>
                        <mxPoint x="100" y="1720" as="targetPoint"/>
                        <Array as="points">
                            <mxPoint x="560" y="2460"/>
                            <mxPoint x="100" y="2460"/>
                        </Array>
                    </mxGeometry>
                </mxCell>
                <mxCell id="131" value="&lt;span style=&quot;color: rgb(0 , 0 , 0) ; font-family: &amp;#34;verdana&amp;#34; ; font-size: 12px ; font-style: normal ; font-weight: 400 ; letter-spacing: normal ; text-align: center ; text-indent: 0px ; text-transform: none ; word-spacing: 0px ; background-color: rgb(248 , 249 , 250) ; display: inline ; float: none&quot;&gt;Hiển thị danh sách thống kê về thời lượng sử dụng&lt;/span&gt;" style="text;whiteSpace=wrap;html=1;" parent="1" vertex="1">
                    <mxGeometry x="185" y="2460" width="315" height="30" as="geometry"/>
                </mxCell>
                <mxCell id="141" style="edgeStyle=orthogonalEdgeStyle;rounded=0;orthogonalLoop=1;jettySize=auto;html=1;entryX=1.006;entryY=0.409;entryDx=0;entryDy=0;entryPerimeter=0;" parent="1" source="9" target="11" edge="1">
                    <mxGeometry relative="1" as="geometry">
                        <Array as="points">
                            <mxPoint x="1080" y="1267"/>
                        </Array>
                    </mxGeometry>
                </mxCell>
                <mxCell id="144" style="edgeStyle=orthogonalEdgeStyle;rounded=0;orthogonalLoop=1;jettySize=auto;html=1;entryX=0.998;entryY=0.436;entryDx=0;entryDy=0;entryPerimeter=0;" parent="1" source="9" target="13" edge="1">
                    <mxGeometry relative="1" as="geometry">
                        <Array as="points">
                            <mxPoint x="1040" y="1469"/>
                        </Array>
                    </mxGeometry>
                </mxCell>
                <mxCell id="148" style="edgeStyle=orthogonalEdgeStyle;rounded=0;orthogonalLoop=1;jettySize=auto;html=1;entryX=0.998;entryY=0.427;entryDx=0;entryDy=0;entryPerimeter=0;" parent="1" source="9" target="16" edge="1">
                    <mxGeometry relative="1" as="geometry">
                        <Array as="points">
                            <mxPoint x="910" y="1668"/>
                            <mxPoint x="910" y="1668"/>
                        </Array>
                    </mxGeometry>
                </mxCell>
                <mxCell id="150" style="edgeStyle=orthogonalEdgeStyle;rounded=0;orthogonalLoop=1;jettySize=auto;html=1;entryX=0.997;entryY=0.444;entryDx=0;entryDy=0;entryPerimeter=0;" parent="1" source="9" target="19" edge="1">
                    <mxGeometry relative="1" as="geometry">
                        <Array as="points">
                            <mxPoint x="1000" y="1870"/>
                        </Array>
                    </mxGeometry>
                </mxCell>
                <mxCell id="151" style="edgeStyle=orthogonalEdgeStyle;rounded=0;orthogonalLoop=1;jettySize=auto;html=1;entryX=0.998;entryY=0.4;entryDx=0;entryDy=0;entryPerimeter=0;" parent="1" source="9" target="21" edge="1">
                    <mxGeometry relative="1" as="geometry">
                        <Array as="points">
                            <mxPoint x="1040" y="2066"/>
                        </Array>
                    </mxGeometry>
                </mxCell>
                <mxCell id="153" style="edgeStyle=orthogonalEdgeStyle;rounded=0;orthogonalLoop=1;jettySize=auto;html=1;entryX=1.003;entryY=0.364;entryDx=0;entryDy=0;entryPerimeter=0;" parent="1" source="9" target="23" edge="1">
                    <mxGeometry relative="1" as="geometry">
                        <Array as="points">
                            <mxPoint x="1080" y="2263"/>
                        </Array>
                    </mxGeometry>
                </mxCell>
                <mxCell id="155" style="edgeStyle=orthogonalEdgeStyle;rounded=0;orthogonalLoop=1;jettySize=auto;html=1;entryX=0.998;entryY=0.347;entryDx=0;entryDy=0;entryPerimeter=0;" parent="1" source="9" target="25" edge="1">
                    <mxGeometry relative="1" as="geometry">
                        <Array as="points">
                            <mxPoint x="1120" y="2461"/>
                        </Array>
                    </mxGeometry>
                </mxCell>
            </root>
        </mxGraphModel>
    </diagram>
</mxfile>